<?xml version="1.0" encoding="iso-8859-1"?>
<!-- Uploaded to: SVG Repo, www.svgrepo.com, Generator: SVG Repo Mixer Tools -->
<svg fill="#5D5D5D" height="20px" width="20px" version="1.1" id="Layer_1" xmlns="http://www.w3.org/2000/svg" xmlns:xlink="http://www.w3.org/1999/xlink" 
	 viewBox="0 0 512.003 512.003" xml:space="preserve">
<g>
	<g>
		<path d="M392.615,295.694c-1.44-2.493-4.099-4.029-6.978-4.029H236.14c-2.879,0.001-5.539,1.537-6.979,4.03
			c-1.44,2.493-1.44,5.565,0,8.057c10.29,17.821,30.356,42.447,67.517,58.565c1.012,0.438,2.103,0.665,3.206,0.665h22.009
			c1.102,0,2.195-0.227,3.206-0.666c7.399-3.209,14.488-6.921,21.072-11.032c3.774-2.357,4.924-7.328,2.566-11.102
			c-2.356-3.775-7.327-4.924-11.102-2.568c-5.46,3.409-11.319,6.517-17.438,9.252h-18.62c-24.373-10.89-40.25-25.778-50.4-39.087
			h119.441c-2.976,3.917-6.212,7.661-9.687,11.208c-3.114,3.178-3.064,8.28,0.115,11.394c3.179,3.113,8.277,3.064,11.393-0.116
			c7.856-8.018,14.645-16.939,20.174-26.514C394.054,301.259,394.054,298.187,392.615,295.694z"/>
	</g>
</g>
<g>
	<g>
		<path d="M430.49,267.61c-1.531-1.778-3.76-2.801-6.107-2.801H260.485v-6.331c0-17.86-5.402-33.221-16.513-46.961
			c-2.799-3.459-7.872-3.996-11.332-1.198c-3.46,2.797-3.997,7.871-1.199,11.332c8.821,10.906,12.929,22.609,12.929,36.828v6.331
			h-19.36v-14.043c0-4.45-3.606-8.057-8.057-8.057h-93.855c-4.451,0-8.057,3.607-8.057,8.057v158.37c0,4.45,3.606,8.057,8.057,8.057
			h93.855c4.451,0,8.057-3.607,8.057-8.057v-65.595c5.566,6.245,11.976,12.46,19.36,18.426v125.846l-12.536,8.074H95.678v-25.22
			c0-4.45-3.606-8.057-8.057-8.057c-4.451,0-8.057,3.608-8.057,8.057v33.278c0,4.45,3.606,8.057,8.057,8.057h146.582h153.37
			c3.574,0,6.721-2.355,7.73-5.783c1.008-3.429-0.362-7.113-3.367-9.048l-56.631-36.475v-73.531
			c43.261-18.639,67.137-47.372,79.655-68.579c14.181-24.022,17.264-43.693,17.389-44.519
			C432.699,271.746,432.021,269.388,430.49,267.61z M208.896,401.077h-0.001h-77.741V258.822h77.741v5.986h-11.499
			c-2.347,0-4.578,1.023-6.109,2.802s-2.21,4.137-1.859,6.458c0.001,0.011,0.005,0.037,0.009,0.052
			c0.265,1.726,3.785,22.916,19.459,47.949V401.077z M400.714,311.019c-17.064,28.573-42.784,49.864-76.447,63.279
			c-3.065,1.221-5.075,4.187-5.075,7.485v83.306c0,2.739,1.391,5.291,3.693,6.773l37.299,24.023h-98.589l37.299-24.023
			c2.303-1.483,3.693-4.034,3.693-6.773v-83.306c0-3.298-2.01-6.264-5.075-7.485c-14.685-5.853-27.857-13.205-39.46-22.006
			c-0.223-0.218-0.46-0.424-0.71-0.617c-32.267-24.84-45.055-55.632-49.66-70.753h9.269h35.475h161.693
			C411.932,288.18,407.877,299.025,400.714,311.019z M260.485,477.433V373.475c7.77,4.93,16.401,9.558,25.987,13.689v73.531
			L260.485,477.433z"/>
	</g>
</g>
<g>
	<g>
		<path d="M207.698,168.078v-15.188c0-0.008-0.001-0.014-0.001-0.02V74.296c-0.001-0.006,0-0.013,0-0.02V51.051
			c11.413-2.691,19.937-12.955,19.937-25.178C227.634,11.607,216.027,0,201.761,0H138.29c-14.267,0-25.874,11.607-25.874,25.872
			c0,12.223,8.523,22.487,19.938,25.178v23.203c0,0.008-0.001,0.014-0.001,0.02v78.615c0,0.008,0.001,0.014,0.001,0.02v15.168
			c0,8.633-6.826,15.162-17.967,25.1c-15.514,13.841-34.822,31.067-34.822,65.299v179.958c0,4.45,3.606,8.057,8.057,8.057
			c4.451,0,8.057-3.608,8.057-8.057V258.478c0-27.013,14.965-40.364,29.436-53.275c11.481-10.242,23.352-20.834,23.352-37.125
			v-7.131h43.115v7.131c0,13.66,8.444,23.4,17.569,31.891c3.259,3.032,8.357,2.847,11.388-0.41
			c3.032-3.257,2.848-8.356-0.409-11.388C212.454,181.031,207.698,175.178,207.698,168.078z M191.582,144.833h-43.115V82.332h43.115
			V144.833z M191.583,66.218h-43.115V51.746h43.115V66.218z M201.761,35.631h-2.11c-0.003,0-0.006,0-0.011,0h-59.23
			c-0.003,0-0.006,0-0.011,0h-2.111c-5.381,0-9.759-4.378-9.759-9.759s4.379-9.758,9.76-9.758h63.471
			c5.381,0,9.759,4.378,9.759,9.758S207.141,35.631,201.761,35.631z"/>
	</g>
</g>
</svg>